<svg width="17" height="16" viewBox="0 0 17 16" fill="none" xmlns="http://www.w3.org/2000/svg">
<path d="M16.1019 2.71C15.1032 1.42627 13.6995 0.681274 12.3739 0.681274C10.6239 0.681274 9.88366 1.54001 8.66781 1.54001C7.41416 1.54001 6.46172 0.683775 4.94831 0.683775C3.46173 0.683775 1.87881 1.61501 0.87515 3.2075C-0.535822 5.44997 -0.294359 9.66617 1.99222 13.2574C2.81051 14.5424 3.90319 15.9873 5.33245 15.9998C6.6044 16.0123 6.96294 15.1636 8.6861 15.1549C10.4093 15.1449 10.7361 16.0111 12.0056 15.9973C13.4361 15.9861 14.5885 14.3849 15.4068 13.0999C15.9934 12.1786 16.2117 11.7149 16.6666 10.6749C13.358 9.38367 12.8276 4.56123 16.1019 2.71Z" fill="#3C4EF3"/>
</svg>
